<svg xmlns="http://www.w3.org/2000/svg" xmlns:xlink="http://www.w3.org/1999/xlink" xmlns:xodm="http://www.corel.com/coreldraw/odm/2003" xml:space="preserve" version="1.1" style="shape-rendering:geometricPrecision; text-rendering:geometricPrecision; image-rendering:optimizeQuality; fill-rule:evenodd; clip-rule:evenodd" viewBox="0 0 400.64 389.28">
 <defs>
  <style type="text/css">
   <![CDATA[
    .str0 {stroke:#373435;stroke-width:14.72;stroke-miterlimit:22.9256}
    .fil2 {fill:none}
    .fil0 {fill:#373435}
    .fil1 {fill:#373435;fill-rule:nonzero}
   ]]>
  </style>
 </defs>
 <g id="Camada_x0020_1">
  <metadata id="CorelCorpID_0Corel-Layer"/>
  <g id="_1452310960">
   <path class="fil0" d="M334.97 112.73c2.95,0.68 10.11,3.28 10.11,3.28 0,0 5.32,1.97 6.25,4.98 0.93,3.01 0.2,5.37 -3.81,6.8 -4.01,1.43 -5.87,1.83 -10.88,-0.27 -5.01,-2.1 -8.58,-5.01 -8.58,-5.01 0,0 -4.3,-3.55 -8.08,-3.55 -3.78,-0 -6.32,-0.61 -10.42,0.51 -4.1,1.12 -3.68,1.26 -4.32,1.46 -0.65,0.2 -3.18,2.02 -3.45,2.19 -0.27,0.17 -3.08,2.58 -4.91,5.25 -1.83,2.66 -1.99,2.87 -1.99,2.87 0,0 -3.03,4.78 -5.1,11.19 -2.07,6.41 -7.21,24.65 -7.21,24.65l-2.51 7.81c0,0 0.51,1.32 2.38,0.85 1.87,-0.47 3.57,-0.97 3.57,-0.97l6.53 -1.94c14.52,-3.47 28.75,-6.07 28.75,-6.07 0,0 23.67,-3.74 5.26,4.65 0,0 -13.59,3.59 -27.42,8.11 0,0 -4.45,1.55 -9.72,2.97l-11.51 3.16 -2.42 8.82 -3.59 10.08 -2.07 7.71 -0.63 2.38 -2.17 8.23 -3.14 10.84 -4.33 14.23c0,0 -0.63,4.87 -4.6,10.75 -3.97,5.88 -4.26,8.06 -10.02,11.77 -5.76,3.71 -8.31,5.32 -11.77,6.74 -3.46,1.42 -8.67,2.52 -8.67,2.52 0,0 -4.73,1.05 -8.74,1.3 -4.01,0.25 -7.58,1.04 -14.26,0.69 -6.68,-0.35 -4.03,-0.11 -6.99,-0.79 -2.95,-0.68 -10.11,-3.28 -10.11,-3.28 0,0 -5.32,-1.97 -6.25,-4.98 -0.93,-3.01 -0.2,-5.37 3.81,-6.8 4.01,-1.43 5.87,-1.83 10.88,0.27 5.01,2.1 8.58,5.01 8.58,5.01 0,0 4.3,3.55 8.08,3.55 3.78,0 6.32,0.61 10.42,-0.51 4.1,-1.12 3.68,-1.26 4.32,-1.47 0.65,-0.2 3.18,-2.02 3.45,-2.19 0.27,-0.17 3.08,-2.59 4.91,-5.25 1.83,-2.66 1.99,-2.87 1.99,-2.87 0,0 3.03,-4.78 5.09,-11.19 2.07,-6.41 7.21,-24.65 7.21,-24.65l2.51 -7.81 5.19 -18.31 1.92 -9.41c-14.52,3.47 -100.8,21.52 -100.8,21.52 0,0 -23.67,3.74 -5.26,-4.65 0,0 85.65,-19.03 99.48,-23.55 0,0 4.45,-1.55 9.71,-2.97l0.63 -2.38 2.17 -8.23 3.14 -10.84 4.33 -14.23c0,0 0.63,-4.87 4.6,-10.75 3.97,-5.88 4.26,-8.06 10.02,-11.77 5.76,-3.71 8.31,-5.32 11.77,-6.74 3.46,-1.42 8.67,-2.52 8.67,-2.52 0,0 4.73,-1.05 8.74,-1.3 4.01,-0.25 7.58,-1.04 14.26,-0.69 6.68,0.35 4.03,0.11 6.99,0.79z"/>
   <path class="fil1" d="M301.91 210.48c-2.89,5.51 -56.34,22.9 -62.04,24.55 -8.39,2.43 -15.34,3.29 -20.83,2.58 -1.89,-0.25 -3.75,-1.76 -3.91,-4.93 -0.63,-12.7 1.21,-17.47 2.16,-21.73 1.49,-6.7 4.69,-20.77 6.25,-37.5 0.97,-10.41 -1.36,-16.01 -6.94,-16.74 -8.88,-1.16 -32.58,50.85 -40.03,70.05 -6.43,16.59 -6.18,23.63 -11.42,41.33 -2.98,10.07 -0.18,-1.89 -5.09,22.55 -0.44,2.19 -9.31,4.09 -10.83,4.38l-9.02 1.68c-1.77,0.33 8.05,-54.92 9.47,-62.26 3.88,-20.05 8.8,-59.36 9.73,-69.37 0.97,-10.41 -1.36,-16.01 -6.94,-16.74 -8.93,-1.17 -18.87,7.09 -29.96,24.73 -8.74,13.88 -16.93,60.51 -22.2,78.21 -3,10.08 -8.23,28.11 -13.15,52.55 -0.44,2.21 -4.96,2.31 -6.49,2.53l-12.51 1.78c-1.39,0.2 -6.29,0.79 -5.79,-1.17 3.47,-13.75 13.56,-51.19 20.73,-83.15 5.49,-24.47 13.29,-66.27 15.06,-81.06 0.25,-1.66 -0.25,-2.6 -1.51,-2.76 -2.33,-0.3 -7.46,2.58 -15.29,8.6 -1.58,1.13 -2.55,1.47 -2.99,0.95 -0.61,-0.84 -1.07,-1.71 -1.48,-2.58 -0.41,-0.93 -0.23,-1.77 0.53,-2.49 9.37,-8.84 19.09,-15.61 29.2,-20.23 5.64,-2.52 9.39,-3.72 11.28,-3.47 0.97,0.13 1.25,1.85 0.96,5.07 -0.17,1.84 -0.65,4.98 -1.43,9.53 -1.69,9.9 -3.41,17.28 -8.24,36.25 -1.04,4.09 0.77,-0.34 4.15,-6.91 8.26,-16.04 7.9,-16.84 17.36,-27.21 10.66,-11.67 25.53,-12.02 34.17,-10.9 10.43,1.36 19.6,13.29 20.97,27.82 0.18,1.86 0.57,3.19 -1.09,11.21 0.53,-0.4 7.16,-11.03 9.29,-14.07 12.02,-17.13 25.85,-18.89 34.28,-17.8 10.91,1.41 21.57,10.25 20.05,27.61 -0.61,6.98 -7.34,32.56 -9.7,58.06 -0.28,3.04 0.52,4.39 2.37,4.09 11.33,-1.82 46.51,-18.46 57.66,-17.52 1.12,0.09 5.31,0.47 3.21,4.46z"/>
  </g>
  <ellipse class="fil2 str0" cx="200.32" cy="194.64" rx="192.96" ry="187.28"/>
 </g>
</svg>